<?xml version="1.0" standalone="no"?>
<!DOCTYPE svg PUBLIC "-//W3C//DTD SVG 20010904//EN"
 "http://www.w3.org/TR/2001/REC-SVG-20010904/DTD/svg10.dtd">
<svg version="1.0" xmlns="http://www.w3.org/2000/svg"
 width="517.000000pt" height="535.000000pt" viewBox="0 0 517.000000 535.000000"
 preserveAspectRatio="xMidYMid meet">

<g transform="translate(0.000000,535.000000) scale(0.100000,-0.100000)"
fill="#000000" stroke="none">
<path d="M242 4198 l3 -413 305 -123 c1081 -436 2287 -925 2299 -931 11 -7 11
-9 0 -13 -8 -3 -219 -89 -469 -190 -480 -195 -818 -332 -1710 -693 -168 -68
-332 -135 -365 -148 l-60 -25 -3 -415 -2 -415 217 88 c253 101 1094 441 1898
765 308 124 779 314 1048 422 l487 197 -2 420 -3 420 -195 78 c-210 86 -1182
478 -1980 800 -1010 408 -1459 588 -1465 588 -3 0 -4 -186 -3 -412z"/>
</g>
</svg>
